{
    "asset" : {
        "generator" : "Khronos glTF Blender I/O v1.7.33",
        "version" : "2.0"
    },
    "scene" : 0,
    "scenes" : [
        {
            "extras" : {
                "act" : {},
                "pov" : {
                    "command_line_switches" : "",
                    "tempfiles_enable" : 1
                }
            },
            "name" : "Scene",
            "nodes" : [
                0,
                1,
                2,
                3,
                4,
                5
            ]
        }
    ],
    "nodes" : [
        {
            "extras" : {
                "prop" : 0.0
            },
            "mesh" : 0,
            "name" : "Plane",
            "translation" : [
                -0.009739357978105545,
                -0.12640829384326935,
                0.07826186716556549
            ]
        },
        {
            "extras" : {
                "mass" : 1.0
            },
            "mesh" : 1,
            "name" : "Cube",
            "translation" : [
                -4.935559272766113,
                0.0013194084167480469,
                4.493975639343262
            ]
        },
        {
            "extras" : {
                "mass" : 1.0
            },
            "mesh" : 2,
            "name" : "Cube.001",
            "translation" : [
                -4.935559272766113,
                0.0013194084167480469,
                4.493975639343262
            ]
        },
        {
            "extras" : {
                "mass" : 0.0
            },
            "mesh" : 3,
            "name" : "Cube.002",
            "translation" : [
                4.632927894592285,
                -0.0010480880737304688,
                -5.961080551147461
            ]
        },
        {
            "extras" : {
                "mass" : 1.0
            },
            "mesh" : 4,
            "name" : "Cube.003",
            "translation" : [
                -1.2697904109954834,
                0.0008068084716796875,
                -2.6401119232177734
            ]
        },
        {
            "name" : "start",
            "translation" : [
                5.891005516052246,
                1.548932433128357,
                4.7487897872924805
            ]
        }
    ],
    "materials" : [
        {
            "doubleSided" : true,
            "name" : "Material",
            "pbrMetallicRoughness" : {
                "baseColorTexture" : {
                    "index" : 0
                },
                "metallicFactor" : 0.527999997138977
            }
        }
    ],
    "meshes" : [
        {
            "name" : "Plane",
            "primitives" : [
                {
                    "attributes" : {
                        "POSITION" : 0,
                        "NORMAL" : 1,
                        "TEXCOORD_0" : 2
                    },
                    "indices" : 3,
                    "material" : 0
                }
            ]
        },
        {
            "name" : "Cube.001",
            "primitives" : [
                {
                    "attributes" : {
                        "POSITION" : 4,
                        "NORMAL" : 5,
                        "TEXCOORD_0" : 6
                    },
                    "indices" : 7,
                    "material" : 0
                }
            ]
        },
        {
            "name" : "Cube.002",
            "primitives" : [
                {
                    "attributes" : {
                        "POSITION" : 8,
                        "NORMAL" : 9,
                        "TEXCOORD_0" : 10
                    },
                    "indices" : 11,
                    "material" : 0
                }
            ]
        },
        {
            "name" : "Cube.003",
            "primitives" : [
                {
                    "attributes" : {
                        "POSITION" : 12,
                        "NORMAL" : 13,
                        "TEXCOORD_0" : 14
                    },
                    "indices" : 15,
                    "material" : 0
                }
            ]
        },
        {
            "name" : "Cube",
            "primitives" : [
                {
                    "attributes" : {
                        "POSITION" : 16,
                        "NORMAL" : 17,
                        "TEXCOORD_0" : 18
                    },
                    "indices" : 19,
                    "material" : 0
                }
            ]
        }
    ],
    "textures" : [
        {
            "sampler" : 0,
            "source" : 0
        }
    ],
    "images" : [
        {
            "bufferView" : 4,
            "mimeType" : "image/png",
            "name" : "testgrid"
        }
    ],
    "accessors" : [
        {
            "bufferView" : 0,
            "componentType" : 5126,
            "count" : 6,
            "max" : [
                10.661832809448242,
                7.82368803024292,
                10.661832809448242
            ],
            "min" : [
                -10.661832809448242,
                0,
                -10.661832809448242
            ],
            "type" : "VEC3"
        },
        {
            "bufferView" : 1,
            "componentType" : 5126,
            "count" : 6,
            "type" : "VEC3"
        },
        {
            "bufferView" : 2,
            "componentType" : 5126,
            "count" : 6,
            "type" : "VEC2"
        },
        {
            "bufferView" : 3,
            "componentType" : 5123,
            "count" : 12,
            "type" : "SCALAR"
        },
        {
            "bufferView" : 5,
            "componentType" : 5126,
            "count" : 38,
            "max" : [
                2.4163732528686523,
                2.54255747795105,
                3.7375972270965576
            ],
            "min" : [
                -4.7607245445251465,
                -0.20651161670684814,
                -5.798437595367432
            ],
            "type" : "VEC3"
        },
        {
            "bufferView" : 6,
            "componentType" : 5126,
            "count" : 38,
            "type" : "VEC3"
        },
        {
            "bufferView" : 7,
            "componentType" : 5126,
            "count" : 38,
            "type" : "VEC2"
        },
        {
            "bufferView" : 8,
            "componentType" : 5123,
            "count" : 60,
            "type" : "SCALAR"
        },
        {
            "bufferView" : 9,
            "componentType" : 5126,
            "count" : 39,
            "max" : [
                -0.41060805320739746,
                2.54255747795105,
                -8.182870864868164
            ],
            "min" : [
                -4.7607245445251465,
                -0.20651161670684814,
                -13.486616134643555
            ],
            "type" : "VEC3"
        },
        {
            "bufferView" : 10,
            "componentType" : 5126,
            "count" : 39,
            "type" : "VEC3"
        },
        {
            "bufferView" : 11,
            "componentType" : 5126,
            "count" : 39,
            "type" : "VEC2"
        },
        {
            "bufferView" : 12,
            "componentType" : 5123,
            "count" : 66,
            "type" : "SCALAR"
        },
        {
            "bufferView" : 13,
            "componentType" : 5126,
            "count" : 90,
            "max" : [
                1,
                2.288125991821289,
                2.8634414672851562
            ],
            "min" : [
                -1,
                -1,
                -4.981751918792725
            ],
            "type" : "VEC3"
        },
        {
            "bufferView" : 14,
            "componentType" : 5126,
            "count" : 90,
            "type" : "VEC3"
        },
        {
            "bufferView" : 15,
            "componentType" : 5126,
            "count" : 90,
            "type" : "VEC2"
        },
        {
            "bufferView" : 16,
            "componentType" : 5123,
            "count" : 162,
            "type" : "SCALAR"
        },
        {
            "bufferView" : 17,
            "componentType" : 5126,
            "count" : 20,
            "max" : [
                1,
                5.755279064178467,
                1
            ],
            "min" : [
                -1,
                -1,
                -1
            ],
            "type" : "VEC3"
        },
        {
            "bufferView" : 18,
            "componentType" : 5126,
            "count" : 20,
            "type" : "VEC3"
        },
        {
            "bufferView" : 19,
            "componentType" : 5126,
            "count" : 20,
            "type" : "VEC2"
        },
        {
            "bufferView" : 20,
            "componentType" : 5123,
            "count" : 30,
            "type" : "SCALAR"
        }
    ],
    "bufferViews" : [
        {
            "buffer" : 0,
            "byteLength" : 72,
            "byteOffset" : 0
        },
        {
            "buffer" : 0,
            "byteLength" : 72,
            "byteOffset" : 72
        },
        {
            "buffer" : 0,
            "byteLength" : 48,
            "byteOffset" : 144
        },
        {
            "buffer" : 0,
            "byteLength" : 24,
            "byteOffset" : 192
        },
        {
            "buffer" : 0,
            "byteLength" : 2462,
            "byteOffset" : 216
        },
        {
            "buffer" : 0,
            "byteLength" : 456,
            "byteOffset" : 2680
        },
        {
            "buffer" : 0,
            "byteLength" : 456,
            "byteOffset" : 3136
        },
        {
            "buffer" : 0,
            "byteLength" : 304,
            "byteOffset" : 3592
        },
        {
            "buffer" : 0,
            "byteLength" : 120,
            "byteOffset" : 3896
        },
        {
            "buffer" : 0,
            "byteLength" : 468,
            "byteOffset" : 4016
        },
        {
            "buffer" : 0,
            "byteLength" : 468,
            "byteOffset" : 4484
        },
        {
            "buffer" : 0,
            "byteLength" : 312,
            "byteOffset" : 4952
        },
        {
            "buffer" : 0,
            "byteLength" : 132,
            "byteOffset" : 5264
        },
        {
            "buffer" : 0,
            "byteLength" : 1080,
            "byteOffset" : 5396
        },
        {
            "buffer" : 0,
            "byteLength" : 1080,
            "byteOffset" : 6476
        },
        {
            "buffer" : 0,
            "byteLength" : 720,
            "byteOffset" : 7556
        },
        {
            "buffer" : 0,
            "byteLength" : 324,
            "byteOffset" : 8276
        },
        {
            "buffer" : 0,
            "byteLength" : 240,
            "byteOffset" : 8600
        },
        {
            "buffer" : 0,
            "byteLength" : 240,
            "byteOffset" : 8840
        },
        {
            "buffer" : 0,
            "byteLength" : 160,
            "byteOffset" : 9080
        },
        {
            "buffer" : 0,
            "byteLength" : 60,
            "byteOffset" : 9240
        }
    ],
    "samplers" : [
        {
            "magFilter" : 9729,
            "minFilter" : 9987
        }
    ],
    "buffers" : [
        {
            "byteLength" : 9300,
            "uri" : "data:application/octet-stream;base64,"
        }
    ]
}
